<svg width="18" height="17" viewBox="0 0 18 17" fill="none" xmlns="http://www.w3.org/2000/svg">
<path d="M15.8207 16.5942C15.4814 16.5942 15.1586 16.448 14.9347 16.1931C14.7108 15.9382 14.6074 15.5991 14.6512 15.2627L15.2416 10.7297C14.449 10.2205 13.9633 9.33861 13.9633 8.38891V6.29931C13.9633 3.35571 15.3862 2.1648 16.6259 1.45581C16.7031 1.41162 16.7982 1.41187 16.8755 1.45654C16.9525 1.50122 17 1.58374 17 1.67285V15.415C17 16.0652 16.4709 16.5942 15.8207 16.5942ZM16.5 2.11792C15.4399 2.81079 14.4633 3.9082 14.4633 6.29931V8.38891C14.4633 9.21508 14.9113 9.97875 15.6326 10.3816C15.7218 10.4314 15.7717 10.5308 15.7585 10.6321L15.1471 15.3271C15.1218 15.521 15.1814 15.7163 15.3103 15.8633C15.4393 16.01 15.6254 16.0942 15.8207 16.0942C16.1953 16.0942 16.5 15.7895 16.5 15.415V2.11792Z" fill="#272D2F" stroke="black" stroke-width="0.4"/>
<path d="M14.7328 3.96508C14.6609 3.96508 14.5896 3.93432 14.5402 3.87475C13.2936 2.37085 11.4571 1.5083 9.50183 1.5083C7.85486 1.5083 6.27979 2.12305 5.06678 3.23926C4.96497 3.33276 4.80689 3.32617 4.7135 3.22436C4.62 3.1228 4.62659 2.9646 4.72815 2.87109C6.03381 1.66992 7.72913 1.0083 9.50183 1.0083C11.6064 1.0083 13.5832 1.93677 14.9252 3.55542C15.0133 3.66186 14.9985 3.81933 14.8922 3.90747C14.8456 3.94629 14.7891 3.96508 14.7328 3.96508Z" fill="#272D2F" stroke="black" stroke-width="0.4"/>
<path d="M9.50234 15.106C7.22634 15.106 5.0812 13.9998 3.76406 12.1465C3.68398 12.0339 3.71047 11.8779 3.8229 11.7979C3.93569 11.7175 4.0917 11.7444 4.17153 11.8569C5.39516 13.5784 7.38796 14.606 9.50234 14.606C11.8457 14.606 14.0238 13.3416 15.1869 11.3062C15.2555 11.1863 15.4081 11.1445 15.528 11.2131C15.6478 11.2815 15.6895 11.4343 15.621 11.5542C14.3692 13.7451 12.0247 15.106 9.50234 15.106Z" fill="#272D2F" stroke="black" stroke-width="0.4"/>
<path d="M9.50134 11.844C7.41296 11.844 5.71387 10.1448 5.71387 8.05639C5.71387 5.96802 7.41296 4.2688 9.50134 4.2688C11.5898 4.2688 13.2889 5.96802 13.2889 8.05639C13.2889 10.1448 11.5898 11.844 9.50134 11.844ZM9.50134 4.7688C7.6886 4.7688 6.21387 6.24365 6.21387 8.05639C6.21387 9.86913 7.6886 11.344 9.50134 11.344C11.3141 11.344 12.7889 9.86913 12.7889 8.05639C12.7889 6.24365 11.3141 4.7688 9.50134 4.7688Z" fill="#272D2F" stroke="black" stroke-width="0.4"/>
<path d="M3.07422 6.29296C1.93054 6.29296 1 5.36254 1 4.21875V1.25C1 1.11182 1.11194 1 1.25 1C1.38806 1 1.5 1.11182 1.5 1.25V4.21875C1.5 5.08666 2.20618 5.79296 3.07422 5.79296C3.94226 5.79296 4.64843 5.08666 4.64843 4.21875V1.25C4.64843 1.11182 4.76037 1 4.89843 1C5.03649 1 5.14843 1.11182 5.14843 1.25V4.21875C5.14843 5.36254 4.21789 6.29296 3.07422 6.29296Z" fill="#272D2F" stroke="black" stroke-width="0.4"/>
<path d="M3.07422 4.49853C2.93616 4.49853 2.82422 4.38671 2.82422 4.24853V1.25C2.82422 1.11182 2.93616 1 3.07422 1C3.21228 1 3.32422 1.11182 3.32422 1.25V4.24853C3.32422 4.38671 3.21228 4.49853 3.07422 4.49853Z" fill="#272D2F" stroke="black" stroke-width="0.4"/>
<path d="M3.07487 16.5937C2.71659 16.5937 2.38322 16.4509 2.13603 16.1916C1.88871 15.9324 1.76201 15.5925 1.77897 15.2346L2.22355 5.91698C2.23027 5.77929 2.34721 5.67675 2.48527 5.67919C2.62309 5.68578 2.72966 5.80297 2.72306 5.94091L2.27848 15.2585C2.26799 15.4783 2.34587 15.6872 2.49784 15.8467C2.8018 16.1655 3.34831 16.165 3.65202 15.8464C3.804 15.687 3.88188 15.478 3.87126 15.258L3.42424 5.94091C3.41764 5.80297 3.52409 5.68578 3.66203 5.67919C3.79618 5.66894 3.91703 5.77904 3.92375 5.91698L4.37077 15.2341C4.38786 15.592 4.26127 15.9321 4.01396 16.1914C3.76676 16.4509 3.43327 16.5937 3.07487 16.5937Z" fill="#272D2F" stroke="black" stroke-width="0.4"/>
</svg>
