<svg width="18" height="18" viewBox="0 0 18 18" fill="none" xmlns="http://www.w3.org/2000/svg">
<path d="M9 1C4.58645 1 0.999985 4.58648 1 9C0.999985 13.4136 4.58645 17 9 17C13.4136 17 17 13.4136 17 9C17 4.58648 13.4136 1 9 1ZM9 1.8C12.9812 1.8 16.2 5.01888 16.2 9C16.2 12.9812 12.9812 16.2 9 16.2C5.01883 16.2 1.79999 12.9812 1.8 9C1.79999 5.01888 5.01883 1.8 9 1.8Z" fill="#272D2F" stroke="#272D2F" stroke-width="0.25"/>
<path d="M9.80001 9.00068C9.80001 9.21286 9.71573 9.41638 9.5657 9.56641C9.41567 9.71644 9.21219 9.80068 9.00001 9.80068C8.78784 9.80068 8.58436 9.71644 8.43433 9.56641C8.2843 9.41638 8.20001 9.21286 8.20001 9.00068C8.20001 8.78851 8.2843 8.58509 8.43433 8.43506C8.58436 8.28503 8.78784 8.20068 9.00001 8.20068C9.21219 8.20068 9.41567 8.28503 9.5657 8.43506C9.71573 8.58509 9.80001 8.78851 9.80001 9.00068Z" fill="#272D2F"/>
<path fill-rule="evenodd" clip-rule="evenodd" d="M4.97971 5.40155C4.91067 5.40512 4.84373 5.42652 4.78542 5.46366C4.7271 5.5008 4.67941 5.55241 4.64699 5.61347C4.61457 5.67453 4.59853 5.74299 4.60043 5.8121C4.60233 5.88121 4.62211 5.94862 4.65784 6.0078L7.37659 10.4891C7.42404 10.5672 7.49683 10.6268 7.58284 10.6578L12.8641 12.5766C12.9417 12.6047 13.0261 12.6081 13.1057 12.5863C13.1853 12.5646 13.2563 12.5187 13.3088 12.4551C13.3614 12.3914 13.3929 12.3131 13.3992 12.2308C13.4054 12.1485 13.3861 12.0662 13.3438 11.9953L10.6828 7.54374C10.6357 7.46498 10.5628 7.40486 10.4766 7.37343L5.13753 5.42499C5.08701 5.40674 5.03334 5.39891 4.97971 5.40185V5.40155ZM5.93284 6.56718L10.0688 8.07655L12.0797 11.4406L7.98753 9.95312L5.93284 6.56718Z" fill="#272D2F" stroke="#272D2F" stroke-width="0.25"/>
<path fill-rule="evenodd" clip-rule="evenodd" d="M8.59998 2.59998V4.19998H9.39998V2.59998H8.59998Z" fill="#272D2F"/>
<path fill-rule="evenodd" clip-rule="evenodd" d="M13.8 8.59998V9.39998H15.4V8.59998H13.8Z" fill="#272D2F"/>
<path fill-rule="evenodd" clip-rule="evenodd" d="M8.59998 13.8V15.4H9.39998V13.8H8.59998Z" fill="#272D2F"/>
<path fill-rule="evenodd" clip-rule="evenodd" d="M2.59998 8.59998V9.39998H4.19998V8.59998H2.59998Z" fill="#272D2F"/>
</svg>
