<svg width="21" height="18" viewBox="0 0 21 18" fill="none" xmlns="http://www.w3.org/2000/svg">
<path d="M1 4.05078H20" stroke="#666E7A" stroke-width="1.5" stroke-linecap="round"/>
<path d="M1 14.0508H20" stroke="#666E7A" stroke-width="1.5" stroke-linecap="round"/>
<path d="M7.41417 7.25C5.64557 7.25 4.20673 5.79206 4.20673 4C4.20673 2.20794 5.64557 0.75 7.41417 0.75C9.18276 0.75 10.6216 2.20794 10.6216 4C10.6216 5.79206 9.18276 7.25 7.41417 7.25Z" fill="white"/>
<path d="M7.41442 1.5C6.05397 1.5 4.94715 2.6215 4.94715 4C4.94715 5.3785 6.05397 6.5 7.41442 6.5C8.77487 6.5 9.88168 5.3785 9.88168 4C9.88168 2.6215 8.77487 1.5 7.41442 1.5ZM7.41442 0C9.59463 0 11.362 1.79086 11.362 4C11.362 6.20914 9.59463 8 7.41442 8C5.23421 8 3.4668 6.20914 3.4668 4C3.4668 1.79086 5.23421 0 7.41442 0Z" fill="#666E7A"/>
<path d="M14.2785 17.248C12.4864 17.248 11.0285 15.7901 11.0285 13.998C11.0285 12.206 12.4864 10.748 14.2785 10.748C16.0706 10.748 17.5285 12.206 17.5285 13.998C17.5285 15.7901 16.0706 17.248 14.2785 17.248Z" fill="white"/>
<path d="M14.2259 11.498C12.8654 11.498 11.7586 12.6195 11.7586 13.998C11.7586 15.3765 12.8654 16.498 14.2259 16.498C15.5863 16.498 16.6931 15.3765 16.6931 13.998C16.6931 12.6195 15.5863 11.498 14.2259 11.498ZM14.2259 9.99805C16.4061 9.99805 18.1735 11.7889 18.1735 13.998C18.1735 16.2072 16.4061 17.998 14.2259 17.998C12.0457 17.998 10.2783 16.2072 10.2783 13.998C10.2783 11.7889 12.0457 9.99805 14.2259 9.99805Z" fill="#666E7A"/>
</svg>
