<svg width="14" height="13" viewBox="0 0 14 13" fill="none" xmlns="http://www.w3.org/2000/svg">
<path d="M12 7.04802L7 12L2 7.04802C1.6702 6.72709 1.41043 6.34136 1.23703 5.91511C1.06363 5.48885 0.980372 5.03132 0.992489 4.5713C1.00461 4.11129 1.11184 3.65877 1.30744 3.24224C1.50303 2.82571 1.78275 2.45419 2.12899 2.15107C2.47522 1.84795 2.88047 1.61981 3.3192 1.481C3.75794 1.3422 4.22067 1.29574 4.67824 1.34455C5.13582 1.39336 5.57833 1.53639 5.97791 1.76462C6.3775 1.99285 6.7255 2.30135 7 2.67068C7.27569 2.30403 7.62409 1.99823 8.0234 1.77242C8.42271 1.54661 8.86433 1.40565 9.32062 1.35836C9.77691 1.31108 10.2381 1.35848 10.6752 1.49761C11.1123 1.63674 11.516 1.8646 11.861 2.16693C12.206 2.46925 12.4849 2.83954 12.6803 3.25461C12.8756 3.66968 12.9832 4.12061 12.9962 4.57916C13.0092 5.0377 12.9275 5.49401 12.7561 5.91952C12.5847 6.34502 12.3273 6.73056 12 7.05202" stroke="white" stroke-width="1.5" stroke-linecap="round" stroke-linejoin="round"/>
</svg>
