<svg width="17" height="16" viewBox="0 0 17 16" fill="none" xmlns="http://www.w3.org/2000/svg">
<g clip-path="url(#clip0_77_1112)">
<path d="M4.86412 7.33332V12.6667C4.86412 12.8435 4.79258 13.013 4.66524 13.1381C4.5379 13.2631 4.36519 13.3333 4.18511 13.3333H2.82708C2.647 13.3333 2.47429 13.2631 2.34695 13.1381C2.21961 13.013 2.14807 12.8435 2.14807 12.6667V7.99999C2.14807 7.82318 2.21961 7.65361 2.34695 7.52859C2.47429 7.40356 2.647 7.33332 2.82708 7.33332H4.86412ZM4.86412 7.33332C5.58446 7.33332 6.2753 7.05237 6.78466 6.55227C7.29402 6.05218 7.58017 5.3739 7.58017 4.66666V3.99999C7.58017 3.64637 7.72325 3.30723 7.97793 3.05718C8.23261 2.80713 8.57802 2.66666 8.93819 2.66666C9.29837 2.66666 9.64378 2.80713 9.89846 3.05718C10.1531 3.30723 10.2962 3.64637 10.2962 3.99999V7.33332H12.3333C12.6934 7.33332 13.0388 7.4738 13.2935 7.72385C13.5482 7.9739 13.6913 8.31303 13.6913 8.66666L13.0123 12C12.9146 12.409 12.7294 12.7602 12.4844 13.0006C12.2395 13.2411 11.9481 13.3579 11.6542 13.3333H6.90116C6.3609 13.3333 5.84277 13.1226 5.46076 12.7475C5.07874 12.3725 4.86412 11.8638 4.86412 11.3333" stroke="#272D2F" stroke-linecap="round" stroke-linejoin="round"/>
</g>
<defs>
<clipPath id="clip0_77_1112">
<rect width="16.2963" height="16" fill="white" transform="translate(0.111084)"/>
</clipPath>
</defs>
</svg>
