<svg width="15" height="18" viewBox="0 0 15 18" fill="none" xmlns="http://www.w3.org/2000/svg">
<path d="M13.3733 1H1.73342C1.32908 1 1 1.32898 1 1.73342V16.2666C1 16.671 1.32908 17 1.73342 17H13.3733C13.7776 17 14.1067 16.671 14.1067 16.2666V1.73342C14.1067 1.32898 13.7776 1 13.3733 1ZM13.7165 16.2666C13.7165 16.4558 13.5625 16.6098 13.3733 16.6098H1.73342C1.54421 16.6098 1.39024 16.4558 1.39024 16.2666V1.73342C1.39024 1.54421 1.54421 1.39024 1.73342 1.39024H13.3733C13.5625 1.39024 13.7165 1.54421 13.7165 1.73342V16.2666Z" fill="#666E7A" stroke="#666E7A" stroke-width="0.25"/>
<path d="M4.54403 4.85082C4.99163 5.29832 5.54099 5.5427 6.01602 5.50707L6.62418 6.15694L5.22277 7.46648C5.07643 7.6032 4.99373 7.78851 4.9903 7.9882C4.98687 8.1879 5.0629 8.37588 5.20429 8.51717C5.34053 8.65351 5.52917 8.73173 5.72201 8.73173C5.92246 8.73173 6.11663 8.6475 6.25497 8.5004L7.53498 7.1314L8.81652 8.50202C8.95333 8.64769 9.13874 8.72972 9.33824 8.73287C9.34224 8.73296 9.34624 8.73296 9.35025 8.73296C9.53832 8.73296 9.71534 8.66246 9.85196 8.53327C9.85768 8.5287 9.8632 8.52384 9.86835 8.5186C10.0095 8.3774 10.0854 8.18952 10.082 7.98963C10.0783 7.78946 9.99602 7.60415 9.85006 7.46791L8.44705 6.15595L9.05471 5.50602C9.52365 5.54118 10.0787 5.29909 10.5271 4.85082C10.9398 4.438 11.186 3.92046 11.1856 3.46629C11.1854 3.19352 11.0964 2.96067 10.9288 2.79356C10.5526 2.41637 9.87445 2.456 9.24144 2.89017C9.11473 2.97553 8.99087 3.07843 8.87368 3.19581C8.42685 3.64112 8.1799 4.19876 8.21686 4.66865L7.53651 5.30442L6.85387 4.66684C6.88797 4.19552 6.6416 3.63864 6.19895 3.19609C6.10596 3.10292 6.0065 3.01774 5.90512 2.94428C5.66675 2.7666 5.40608 2.64064 5.1515 2.58014C5.07224 2.56099 4.98858 2.59405 4.94323 2.66275C4.89826 2.73135 4.90093 2.82081 4.9499 2.88664L5.26336 3.30661C4.31976 2.61568 4.2504 2.6858 4.14121 2.7947C4.0326 2.90351 3.96286 2.97344 4.64998 3.9097L4.23325 3.5992C4.1677 3.55023 4.07814 3.54727 4.00954 3.59253C3.94114 3.6374 3.90798 3.72048 3.92666 3.80023C4.01202 4.16351 4.23115 4.53651 4.54403 4.85082ZM9.58367 7.75307C9.65169 7.81652 9.69 7.90293 9.69171 7.9964C9.69323 8.08462 9.6616 8.1677 9.60253 8.23201C9.59872 8.23544 9.59472 8.23897 9.5911 8.24268C9.52498 8.30861 9.43676 8.339 9.34434 8.34272C9.25135 8.3412 9.16503 8.3029 9.10139 8.23516L7.80223 6.84567L7.93511 6.70344L8.18056 6.44094L9.58367 7.75307ZM8.5589 4.88293C8.60844 4.83386 8.63035 4.77641 8.61263 4.70886C8.61263 4.69981 8.61206 4.69076 8.61073 4.6818C8.56061 4.32309 8.77193 3.84834 9.14941 3.47191C9.24926 3.37197 9.35368 3.28508 9.46076 3.21286C9.73649 3.02365 10.0202 2.92561 10.2548 2.92561C10.4173 2.92561 10.5564 2.97277 10.6526 3.06947C10.7704 3.18676 10.7952 3.35025 10.7954 3.46667C10.7957 3.81423 10.5871 4.23887 10.2512 4.5749C9.86854 4.95753 9.37064 5.17142 9.0145 5.10796C8.94971 5.09615 8.88302 5.11844 8.83767 5.16675L8.02922 6.03139C8.02941 6.0312 8.02903 6.03158 8.02922 6.03139L7.73451 6.34659L5.97029 8.23344C5.84262 8.3693 5.61111 8.37216 5.48039 8.24135C5.41446 8.17532 5.37883 8.08786 5.38054 7.99497C5.38207 7.90198 5.42075 7.81557 5.48916 7.75173L7.0316 6.31026C7.03222 6.30967 7.03313 6.30949 7.03374 6.3089L7.43344 5.93471L8.5589 4.88293ZM4.75516 4.47477C4.83291 4.53241 4.94114 4.52479 5.00974 4.45629L5.19685 4.26917C5.26583 4.20029 5.27326 4.0911 5.21438 4.01336C5.08119 3.83758 4.94019 3.64474 4.8169 3.46944C4.9924 3.59272 5.18561 3.73354 5.36168 3.86654C5.43904 3.92513 5.54842 3.91789 5.61721 3.84882L5.80566 3.66037C5.87426 3.59186 5.88207 3.48344 5.82414 3.4057L5.76945 3.33243C5.82224 3.37588 5.87368 3.42256 5.92304 3.47191C6.29727 3.84615 6.50802 4.32167 6.46 4.69619C6.44304 4.76488 6.47277 4.84539 6.5246 4.8936L7.25078 5.57109L7.0845 5.7268L6.90934 5.89047L6.23325 5.16808C6.1959 5.12826 6.14426 5.10625 6.09072 5.10625C6.07948 5.10625 6.06823 5.1072 6.05718 5.1092C5.69914 5.17247 5.202 4.95705 4.82033 4.57519C4.76869 4.52336 4.7201 4.46982 4.67494 4.41494L4.75516 4.47477Z" fill="#666E7A"/>
<path d="M8.02922 6.03139L8.83767 5.16675C8.88302 5.11844 8.94971 5.09615 9.0145 5.10796C9.37063 5.17142 9.86854 4.95753 10.2512 4.5749C10.5871 4.23887 10.7957 3.81423 10.7954 3.46667C10.7952 3.35025 10.7704 3.18676 10.6526 3.06947C10.5564 2.97277 10.4173 2.92561 10.2548 2.92561C10.0202 2.92561 9.73649 3.02365 9.46076 3.21286C9.35368 3.28508 9.24926 3.37197 9.14941 3.47191C8.77193 3.84834 8.56061 4.32309 8.61073 4.6818C8.61206 4.69076 8.61263 4.69981 8.61263 4.70886C8.63035 4.77641 8.60844 4.83386 8.5589 4.88293L7.43344 5.93471L7.03374 6.3089C7.03313 6.30949 7.03222 6.30967 7.0316 6.31026L5.48916 7.75173C5.42075 7.81557 5.38207 7.90198 5.38054 7.99497C5.37883 8.08786 5.41446 8.17532 5.48039 8.24135C5.61111 8.37216 5.84262 8.3693 5.97029 8.23344L7.73451 6.34659L8.02922 6.03139ZM8.02922 6.03139C8.02903 6.03158 8.02941 6.0312 8.02922 6.03139ZM4.54403 4.85082C4.99163 5.29832 5.54099 5.5427 6.01602 5.50707L6.62418 6.15694L5.22277 7.46648C5.07643 7.6032 4.99373 7.78851 4.9903 7.9882C4.98687 8.1879 5.0629 8.37588 5.20429 8.51717C5.34053 8.65351 5.52917 8.73173 5.72201 8.73173C5.92246 8.73173 6.11663 8.6475 6.25497 8.5004L7.53498 7.1314L8.81652 8.50202C8.95333 8.64769 9.13874 8.72973 9.33824 8.73287C9.34224 8.73296 9.34624 8.73296 9.35025 8.73296C9.53832 8.73296 9.71534 8.66246 9.85196 8.53327C9.85768 8.5287 9.8632 8.52384 9.86835 8.5186C10.0095 8.3774 10.0854 8.18952 10.082 7.98963C10.0783 7.78946 9.99602 7.60415 9.85006 7.46791L8.44705 6.15595L9.05471 5.50602C9.52365 5.54118 10.0787 5.29909 10.5271 4.85082C10.9398 4.438 11.186 3.92046 11.1856 3.46629C11.1854 3.19352 11.0964 2.96067 10.9288 2.79356C10.5526 2.41637 9.87445 2.456 9.24144 2.89017C9.11473 2.97553 8.99087 3.07843 8.87368 3.19581C8.42685 3.64112 8.1799 4.19876 8.21686 4.66865L7.53651 5.30442L6.85387 4.66684C6.88797 4.19552 6.6416 3.63864 6.19895 3.19609C6.10596 3.10292 6.0065 3.01774 5.90512 2.94428C5.66675 2.7666 5.40608 2.64064 5.1515 2.58014C5.07224 2.56099 4.98858 2.59405 4.94323 2.66275C4.89826 2.73135 4.90093 2.82081 4.9499 2.88664L5.26336 3.30661C4.31976 2.61568 4.2504 2.6858 4.14121 2.7947C4.0326 2.90351 3.96286 2.97344 4.64998 3.9097L4.23325 3.5992C4.1677 3.55023 4.07814 3.54727 4.00954 3.59253C3.94114 3.6374 3.90798 3.72048 3.92666 3.80023C4.01202 4.16351 4.23115 4.53651 4.54403 4.85082ZM9.58367 7.75307C9.65169 7.81652 9.69 7.90293 9.69171 7.9964C9.69323 8.08462 9.6616 8.1677 9.60253 8.23201C9.59872 8.23544 9.59472 8.23897 9.5911 8.24268C9.52498 8.30861 9.43676 8.339 9.34434 8.34272C9.25135 8.3412 9.16503 8.3029 9.10139 8.23516L7.80223 6.84567L7.93511 6.70344L8.18056 6.44094L9.58367 7.75307ZM4.75516 4.47477C4.83291 4.53241 4.94114 4.52479 5.00974 4.45629L5.19685 4.26917C5.26583 4.20029 5.27326 4.0911 5.21438 4.01336C5.08119 3.83758 4.94019 3.64474 4.8169 3.46944C4.9924 3.59272 5.18561 3.73354 5.36168 3.86654C5.43904 3.92513 5.54842 3.91789 5.61721 3.84882L5.80566 3.66037C5.87426 3.59186 5.88207 3.48344 5.82414 3.4057L5.76945 3.33243C5.82224 3.37588 5.87368 3.42256 5.92304 3.47191C6.29727 3.84615 6.50802 4.32167 6.46 4.69619C6.44304 4.76488 6.47277 4.84539 6.5246 4.8936L7.25078 5.57109L7.0845 5.7268L6.90934 5.89047L6.23325 5.16808C6.1959 5.12826 6.14426 5.10625 6.09072 5.10625C6.07948 5.10625 6.06823 5.1072 6.05718 5.1092C5.69914 5.17247 5.202 4.95705 4.82033 4.57519C4.76869 4.52336 4.7201 4.46982 4.67494 4.41494L4.75516 4.47477Z" stroke="#666E7A" stroke-width="0.1"/>
<path d="M9.91325 9.6308H5.19335C5.0855 9.6308 4.99823 9.71816 4.99823 9.82592C4.99823 9.93368 5.0855 10.021 5.19335 10.021H9.91325C10.0211 10.021 10.1084 9.93368 10.1084 9.82592C10.1084 9.71816 10.0211 9.6308 9.91325 9.6308Z" fill="#666E7A" stroke="#666E7A" stroke-width="0.25"/>
<path d="M5.20349 11.5375H2.85174C2.74389 11.5375 2.65662 11.6248 2.65662 11.7326C2.65662 11.8404 2.74389 11.9277 2.85174 11.9277H5.20349C5.31134 11.9277 5.39861 11.8404 5.39861 11.7326C5.39861 11.6248 5.31134 11.5375 5.20349 11.5375Z" fill="#666E7A" stroke="#666E7A" stroke-width="0.25"/>
<path d="M5.20349 12.7485H2.85174C2.74389 12.7485 2.65662 12.8359 2.65662 12.9437C2.65662 13.0514 2.74389 13.1388 2.85174 13.1388H5.20349C5.31134 13.1388 5.39861 13.0514 5.39861 12.9437C5.39861 12.8359 5.31134 12.7485 5.20349 12.7485Z" fill="#666E7A" stroke="#666E7A" stroke-width="0.25"/>
<path d="M5.20349 13.9597H2.85174C2.74389 13.9597 2.65662 14.0471 2.65662 14.1548C2.65662 14.2626 2.74389 14.35 2.85174 14.35H5.20349C5.31134 14.35 5.39861 14.2626 5.39861 14.1548C5.39861 14.0471 5.31134 13.9597 5.20349 13.9597Z" fill="#666E7A" stroke="#666E7A" stroke-width="0.25"/>
<path d="M8.72931 11.5375H6.37756C6.26971 11.5375 6.18243 11.6248 6.18243 11.7326C6.18243 11.8404 6.26971 11.9277 6.37756 11.9277H8.72931C8.83716 11.9277 8.92443 11.8404 8.92443 11.7326C8.92443 11.6248 8.83716 11.5375 8.72931 11.5375Z" fill="#666E7A" stroke="#666E7A" stroke-width="0.25"/>
<path d="M8.72931 12.7485H6.37756C6.26971 12.7485 6.18243 12.8359 6.18243 12.9437C6.18243 13.0514 6.26971 13.1388 6.37756 13.1388H8.72931C8.83716 13.1388 8.92443 13.0514 8.92443 12.9437C8.92443 12.8359 8.83716 12.7485 8.72931 12.7485Z" fill="#666E7A" stroke="#666E7A" stroke-width="0.25"/>
<path d="M8.72931 13.9597H6.37756C6.26971 13.9597 6.18243 14.0471 6.18243 14.1548C6.18243 14.2626 6.26971 14.35 6.37756 14.35H8.72931C8.83716 14.35 8.92443 14.2626 8.92443 14.1548C8.92443 14.0471 8.83716 13.9597 8.72931 13.9597Z" fill="#666E7A" stroke="#666E7A" stroke-width="0.25"/>
<path d="M12.2551 11.5375H9.90331C9.79546 11.5375 9.70819 11.6248 9.70819 11.7326C9.70819 11.8404 9.79546 11.9277 9.90331 11.9277H12.2551C12.3629 11.9277 12.4502 11.8404 12.4502 11.7326C12.4502 11.6248 12.3629 11.5375 12.2551 11.5375Z" fill="#666E7A" stroke="#666E7A" stroke-width="0.25"/>
<path d="M12.2551 12.7485H9.90331C9.79546 12.7485 9.70819 12.8359 9.70819 12.9437C9.70819 13.0514 9.79546 13.1388 9.90331 13.1388H12.2551C12.3629 13.1388 12.4502 13.0514 12.4502 12.9437C12.4502 12.8359 12.3629 12.7485 12.2551 12.7485Z" fill="#666E7A" stroke="#666E7A" stroke-width="0.25"/>
<path d="M12.2551 13.9597H9.90331C9.79546 13.9597 9.70819 14.0471 9.70819 14.1548C9.70819 14.2626 9.79546 14.35 9.90331 14.35H12.2551C12.3629 14.35 12.4502 14.2626 12.4502 14.1548C12.4502 14.0471 12.3629 13.9597 12.2551 13.9597Z" fill="#666E7A" stroke="#666E7A" stroke-width="0.25"/>
</svg>
