<svg width="18" height="18" viewBox="0 0 18 18" fill="none" xmlns="http://www.w3.org/2000/svg">
<path d="M16.1884 7.77101C15.9565 7.58551 15.7246 7.35362 15.6783 7.21449C15.6319 7.05217 15.7478 6.72754 15.8406 6.42609C16.0029 5.96232 16.1884 5.42899 15.9333 4.98841C15.6783 4.54783 15.1449 4.43188 14.6348 4.33913C14.3333 4.29275 14.0087 4.22319 13.8928 4.10725C13.7768 3.9913 13.7072 3.66667 13.6609 3.36522C13.5681 2.85507 13.4522 2.32174 13.0116 2.06667C12.571 1.81159 12.0609 1.9971 11.5739 2.15942C11.2957 2.25217 10.971 2.36812 10.7855 2.32174C10.6232 2.27536 10.4145 2.02029 10.229 1.81159C9.88116 1.41739 9.53333 1 9 1C8.46667 1 8.11884 1.41739 7.77101 1.81159C7.58551 2.04348 7.35362 2.27536 7.21449 2.32174C7.05217 2.36812 6.72754 2.25217 6.42609 2.15942C5.93913 1.9971 5.42899 1.81159 4.98841 2.06667C4.54783 2.32174 4.43188 2.85507 4.33913 3.36522C4.29275 3.66667 4.22319 3.9913 4.10725 4.10725C3.9913 4.22319 3.66667 4.29275 3.36522 4.33913C2.85507 4.43188 2.32174 4.54783 2.06667 4.98841C1.81159 5.42899 1.9971 5.93913 2.15942 6.42609C2.25217 6.70435 2.36812 7.02899 2.32174 7.21449C2.27536 7.37681 2.02029 7.58551 1.81159 7.77101C1.41739 8.11884 1 8.46667 1 9C1 9.51015 1.41739 9.88116 1.81159 10.229C2.04348 10.4145 2.27536 10.6464 2.32174 10.7855C2.36812 10.9478 2.25217 11.2725 2.15942 11.5739C1.9971 12.0377 1.81159 12.571 2.06667 13.0116C2.32174 13.4522 2.85507 13.5681 3.36522 13.6609C3.66667 13.7072 3.9913 13.7768 4.10725 13.8928C4.22319 14.0087 4.29275 14.3333 4.33913 14.6348C4.43188 15.1449 4.54783 15.6783 4.98841 15.9333C5.42899 16.1884 5.93913 16.0029 6.42609 15.8406C6.70435 15.7478 7.02899 15.6319 7.1913 15.6783C7.35362 15.7246 7.56232 15.9797 7.74783 16.1884C8.09565 16.5826 8.44348 17 8.97681 17C9.51015 17 9.85797 16.5826 10.2058 16.1884C10.3913 15.9565 10.6232 15.7246 10.7623 15.6783C10.9246 15.6319 11.2493 15.7478 11.5507 15.8406C12.0145 16.0029 12.5478 16.1884 12.9884 15.9333C13.429 15.6783 13.5449 15.1449 13.6377 14.6348C13.6841 14.3333 13.7536 14.0087 13.8696 13.8928C13.9855 13.7768 14.3101 13.7072 14.6116 13.6609C15.1217 13.5681 15.6551 13.4522 15.9101 13.0116C16.1652 12.571 15.9797 12.0609 15.8174 11.5739C15.7246 11.2957 15.6087 10.971 15.6551 10.7855C15.7014 10.6232 15.9565 10.4145 16.1652 10.229C16.5594 9.88116 16.9768 9.53333 16.9768 9C17 8.48986 16.6058 8.11884 16.1884 7.77101ZM15.6783 9.64928C15.3536 9.92754 15.029 10.2058 14.9362 10.6C14.8203 10.9942 14.9826 11.4116 15.1217 11.829C15.2145 12.1072 15.3536 12.5014 15.2609 12.6174C15.1913 12.7565 14.7739 12.8261 14.4957 12.8957C14.0783 12.9884 13.6377 13.058 13.3594 13.3594C13.0812 13.6377 12.9884 14.0783 12.8957 14.4957C12.8493 14.7971 12.7565 15.1913 12.6174 15.2609C12.4783 15.3304 12.0841 15.1913 11.829 15.0986C11.4116 14.9594 10.9942 14.8203 10.6 14.913C10.229 15.0058 9.92754 15.3536 9.64927 15.6551C9.44058 15.887 9.18551 16.1884 9 16.1884C8.81449 16.1884 8.55942 15.8638 8.35072 15.6551C8.07246 15.3304 7.7942 15.0058 7.4 14.913C7.30725 14.8899 7.21449 14.8667 7.12174 14.8667C6.82029 14.8667 6.49565 14.9826 6.17101 15.0754C5.89275 15.1681 5.49855 15.3072 5.38261 15.2145C5.24348 15.1449 5.17391 14.7275 5.10435 14.4261C5.01159 14.0087 4.94203 13.5681 4.64058 13.2899C4.36232 13.0116 3.92174 12.9188 3.50435 12.8261C3.2029 12.7797 2.8087 12.687 2.73913 12.5478C2.66957 12.4087 2.78551 12.0377 2.87826 11.7594C3.01739 11.342 3.15652 10.9246 3.06377 10.5304C2.97101 10.1594 2.62319 9.85797 2.32174 9.57971C2.08986 9.37101 1.78841 9.11594 1.78841 8.93044C1.78841 8.76812 2.11304 8.48986 2.32174 8.28116C2.64638 8.0029 2.97101 7.72464 3.06377 7.33043C3.17971 6.93623 3.01739 6.51884 2.87826 6.10145C2.78551 5.82319 2.64638 5.42899 2.73913 5.31304C2.8087 5.17391 3.22609 5.10435 3.50435 5.03478C3.92174 4.94203 4.36232 4.87246 4.64058 4.57101C4.91884 4.29275 5.01159 3.85217 5.10435 3.43478C5.15072 3.13333 5.24348 2.73913 5.38261 2.66957C5.52174 2.6 5.89275 2.71594 6.17101 2.83188C6.58841 2.97101 7.0058 3.11015 7.4 3.01739C7.77101 2.92464 8.07246 2.57681 8.35072 2.27536C8.55942 2.04348 8.81449 1.74203 9 1.74203C9.18551 1.74203 9.44058 2.06667 9.64927 2.27536C9.92754 2.6 10.2058 2.92464 10.6 3.01739C10.9942 3.13333 11.4116 2.97101 11.829 2.83188C12.1072 2.73913 12.5014 2.6 12.6174 2.69275C12.7565 2.76232 12.8261 3.17971 12.8957 3.48116C12.9884 3.89855 13.058 4.33913 13.3594 4.61739C13.6377 4.89565 14.0783 4.98841 14.4957 5.08116C14.7971 5.12754 15.1913 5.22029 15.2609 5.35942C15.3304 5.49855 15.2145 5.86957 15.1217 6.14783C14.9826 6.56522 14.8435 6.98261 14.9362 7.37681C15.029 7.74783 15.3768 8.04927 15.6783 8.32754C15.9101 8.53623 16.2116 8.79131 16.2116 8.97681C16.2348 9.16232 15.9101 9.44058 15.6783 9.64928Z" fill="#666E7A" stroke="#666E7A" stroke-width="0.25"/>
<path d="M8.88409 7.35365C8.88409 6.56524 8.30438 5.96234 7.42322 5.96234C6.54206 5.96234 5.98553 6.58843 5.98553 7.35365C5.98553 8.11886 6.54206 8.74495 7.42322 8.74495C8.30438 8.74495 8.88409 8.11886 8.88409 7.35365ZM6.86669 7.35365C6.86669 6.93625 7.09858 6.72756 7.42322 6.72756C7.74785 6.72756 8.00293 6.93625 8.00293 7.35365C8.00293 7.74785 7.74785 7.97973 7.42322 7.97973C7.09858 7.97973 6.86669 7.74785 6.86669 7.35365Z" fill="#666E7A"/>
<path d="M10.5769 8.90723C9.69574 8.90723 9.11603 9.53331 9.11603 10.2985C9.11603 11.0637 9.67255 11.6898 10.5769 11.6898C11.4581 11.6898 12.0378 11.0869 12.0378 10.2985C12.0146 9.53331 11.4581 8.90723 10.5769 8.90723ZM10.5769 10.9246C10.2523 10.9246 10.0204 10.7159 10.0204 10.2985C10.0204 9.88114 10.2523 9.67244 10.5769 9.67244C10.9015 9.67244 11.1334 9.88114 11.1334 10.2985C11.1334 10.7159 10.9015 10.9246 10.5769 10.9246Z" fill="#666E7A"/>
<path d="M10.4144 6.03186L6.86658 11.5971H7.58542L11.1564 6.03186H10.4144Z" fill="#666E7A" stroke="#666E7A" stroke-width="0.25"/>
</svg>
