<svg width="18" height="18" viewBox="0 0 18 18" fill="none" xmlns="http://www.w3.org/2000/svg">
<path d="M5.33586 7.88703H6.70746C6.78924 7.88703 6.81042 7.9294 6.81042 7.94398V12.2011C6.81042 12.2155 6.78924 12.2558 6.70746 12.2558H5.33586C5.25386 12.2558 5.23153 12.2155 5.23153 12.2011V7.94376C5.2313 7.9294 5.25386 7.88703 5.33586 7.88703ZM10.2167 5.17938C10.3145 5.34431 10.3655 5.70128 10.3655 6.17966V7.57722C10.3655 7.74443 10.5006 7.87952 10.668 7.87838H12.9661C13.4178 7.87838 13.3599 8.57477 12.8141 8.57477C12.5187 8.57477 12.4772 9.14678 12.8059 9.17411C13.272 9.21216 13.1214 9.87437 12.7194 9.87437C12.3266 9.87437 12.3219 10.4544 12.7194 10.4769C13.0526 10.4949 13.0444 11.1733 12.5342 11.1697C12.3007 11.1685 12.1544 11.5733 12.3692 11.6979C12.6114 11.8367 12.4346 12.2576 12.1738 12.2576H8.91531C8.5916 12.2576 8.38977 12.2103 8.09659 12.0408L7.41455 11.643V8.43376L8.99618 6.8781C9.55133 6.33138 9.63289 5.63385 9.70783 5.20421C9.77549 4.81034 10.1065 4.9919 10.2167 5.17938ZM9.84315 4.34859C9.4896 4.37707 9.18116 4.6871 9.11236 5.10922C9.03855 5.55639 8.96862 6.06075 8.57475 6.44847L7.34302 7.66014C7.22571 7.43348 6.97399 7.28495 6.70723 7.28495H5.33564C4.96774 7.28495 4.62854 7.56264 4.62854 7.94376V12.2009C4.62854 12.5818 4.96774 12.8595 5.33564 12.8595H6.70723C7.0298 12.8595 7.33095 12.6449 7.39884 12.3328L7.79407 12.5615C8.16311 12.7763 8.51871 12.8595 8.91508 12.8595H12.2157C12.8469 12.8595 13.2089 12.1656 13.044 11.6364C13.5151 11.3467 13.6848 10.6252 13.3476 10.2006C13.7274 9.84339 13.8021 9.2215 13.5021 8.90143C13.8458 8.65085 13.8757 8.1137 13.7511 7.79067C13.6349 7.48838 13.3383 7.27584 13.0116 7.27584H10.9687V6.17966C10.9687 5.66938 10.9425 5.23383 10.7384 4.87914C10.5384 4.53152 10.1981 4.32034 9.84315 4.34859Z" fill="#666E7A" stroke="#666E7A" stroke-width="0.25"/>
<path fill-rule="evenodd" clip-rule="evenodd" d="M7.23905 1.62793C7.42403 1.62679 7.62563 1.67326 7.82974 1.77874C8.68172 2.22614 9.33187 2.16805 10.1633 1.77874C10.7189 1.52041 11.1896 1.56187 11.598 2.1644C12.1106 2.92139 12.6612 3.27972 13.6175 3.33189C14.2307 3.36515 14.6153 3.65195 14.6663 4.38069C14.7317 5.29303 15.0317 5.87803 15.8336 6.40106C16.3475 6.7357 16.5372 7.17946 16.2192 7.83439C15.8183 8.65926 15.7837 9.31282 16.2192 10.1684C16.4969 10.7152 16.4363 11.1945 15.8336 11.6027C15.0768 12.1166 14.7185 12.667 14.6663 13.6235C14.6328 14.2368 14.3458 14.6224 13.6175 14.6744C12.7052 14.7397 12.1213 15.0366 11.598 15.8393C11.2636 16.3535 10.8089 16.5608 10.1633 16.225C9.32002 15.7863 8.64846 15.8204 7.82974 16.225C7.17618 16.5467 6.72992 16.3533 6.39527 15.8393C5.87224 15.0366 5.28861 14.7397 4.37604 14.6744C3.6473 14.6224 3.35913 14.2368 3.3261 13.6235C3.27485 12.667 2.91652 12.1166 2.15953 11.6027C1.55586 11.1945 1.49503 10.7152 1.77386 10.1684C2.20942 9.31282 2.17525 8.65926 1.77386 7.83439C1.45608 7.17969 1.64607 6.73593 2.15953 6.40106C2.96162 5.87803 3.26164 5.29303 3.3261 4.38069C3.37827 3.65195 3.7612 3.36492 4.37604 3.33189C5.33235 3.27972 5.88295 2.92116 6.39527 2.1644C6.65041 1.78853 6.92901 1.63044 7.23905 1.62793ZM7.15568 1.01606C6.66568 1.03109 6.22898 1.28623 5.90277 1.81792C5.48862 2.49198 4.9927 2.66192 4.32342 2.72912C3.36232 2.82799 2.75022 3.35581 2.72402 4.32852C2.70284 5.11876 2.35863 5.51377 1.81282 5.90764C1.0285 6.4735 0.765386 7.23413 1.22896 8.09089C1.60529 8.785 1.50437 9.29847 1.22896 9.91331C0.833043 10.7947 0.982253 11.5872 1.81282 12.0963C2.48574 12.5102 2.65546 13.005 2.72402 13.6754C2.82152 14.6365 3.35048 15.2477 4.32342 15.2748C5.11252 15.296 5.50867 15.6377 5.90277 16.1861C6.48662 16.9988 7.2149 17.2207 8.08488 16.771C8.78469 16.4102 9.29496 16.4863 9.90729 16.771C10.7948 17.1838 11.5065 16.9988 12.0903 16.1861C12.4842 15.6377 12.8806 15.296 13.6694 15.2748C14.6426 15.2475 15.1704 14.6363 15.2688 13.6754C15.3379 13.0053 15.506 12.5102 16.18 12.0963C17.0095 11.5872 17.1603 10.7949 16.7639 9.91331C16.4876 9.29847 16.388 8.785 16.7639 8.09089C17.2277 7.2339 16.9644 6.47327 16.18 5.90764C15.6329 5.51377 15.29 5.11876 15.2688 4.32852C15.2426 3.35581 14.6305 2.82776 13.6694 2.72912C12.999 2.66192 12.5047 2.49198 12.0903 1.81792C11.5673 0.966395 10.7481 0.794177 9.90729 1.23406C9.21523 1.59741 8.69243 1.52383 8.08488 1.23406C7.76436 1.08143 7.45 1.00535 7.15568 1.01606Z" fill="#666E7A" stroke="#666E7A" stroke-width="0.25"/>
</svg>
